{"title":"You May Not Kiss The Bride 2011 BRRip x264 AAC-UNiQUE","uid":7372576,"size":1090232738,"categoryP":"video","categoryS":"movies","magnet":"?xt=urn:btih:c55582f253a10de8626fb7437accc33e531c86ae&amp;dn=You+May+Not+Kiss+The+Bride+2011+BRRip+x264+AAC-UNiQUE&amp;tr=udp%3A%2F%2Ftracker.openbittorrent.com%3A80&amp;tr=udp%3A%2F%2Fopen.demonii.com%3A1337&amp;tr=udp%3A%2F%2Ftracker.coppersurfer.tk%3A6969&amp;tr=udp%3A%2F%2Fexodus.desync.com%3A6969","seeders":0,"leechers":1,"uploader":"neon","files":-1,"time":1340278688,"description":"An unassuming pet photographer is thrown into serious action, adventure and romance when he's forced to marry a Croatian bride and spend his honeymoon at a remote tropical resort where she is kidnapped.\n \n &lt;a href=&quot; http://www.imdb.com/title/tt1381418/&quot; rel=&quot;nofollow&quot; target=&quot;_NEW&quot;&gt; http://www.imdb.com/title/tt1381418/&lt;/a&gt;\n\n\nComplete name : You May Not Kiss The Bride 2011 BRRip x264 AAC-UNiQUE.mp4\n Format : MPEG-4\n Format profile : Base Media\n Codec ID : isom\n File size : 1.01 GiB\n Duration : 1h 40mn\n Overall bit rate mode : Variable\n Overall bit rate : 1 444 Kbps\n Encoded date : UTC 2012-06-21 08:06:56\n \nVideo\n ID : 1\n Format : AVC\n Format/Info : Advanced Video Codec\n Format profile : &lt;a class=&quot;__cf_email__&quot; href=&quot;/cdn-cgi/l/email-protection&quot; data-cfemail=&quot;7038191718303c445e41&quot;&gt;[email&amp;#160;protected]&lt;/a&gt;&lt;script cf-hash='f9e31' type=&quot;text/javascript&quot;&gt;\n/* &lt;![CDATA[ */!function(){try{var t=&quot;currentScript&quot;in document?document.currentScript:function(){for(var t=document.getElementsByTagName(&quot;script&quot;),e=t.length;e--;)if(t[e].getAttribute(&quot;cf-hash&quot;))return t[e]}();if(t&amp;&amp;t.previousSibling){var e,r,n,i,c=t.previousSibling,a=c.getAttribute(&quot;data-cfemail&quot;);if(a){for(e=&quot;&quot;,r=parseInt(a.substr(0,2),16),n=2;a.length-n;n+=2)i=parseInt(a.substr(n,2),16)^r,e+=String.fromCharCode(i);e=document.createTextNode(e),c.parentNode.replaceChild(e,c)}}}catch(u){}}();/* ]]&gt; */&lt;/script&gt;\n Format settings, CABAC : Yes\n Format settings, ReFrames : 3 frames\n Codec ID : avc1\n Codec ID/Info : Advanced Video Coding\n Duration : 1h 40mn\n Bit rate mode : Variable\n Bit rate : 1 103 Kbps\n Maximum bit rate : 40.0 Mbps\n Width : 720 pixels\n Height : 400 pixels\n Display aspect ratio : 16:9\n Frame rate mode : Constant\n Frame rate : 24.000 fps\n Color space : YUV\n Chroma subsampling : 4:2:0\n Bit depth : 8 bits\n Scan type : Progressive\n Bits/(Pixel*Frame) : 0.160\n Stream size : 790 MiB (76%)\n Writing library : x264 core 125 r2200 999b753\n \nAudio\n ID : 2\n Format : AAC\n Format/Info : Advanced Audio Codec\n Format profile : LC\n Codec ID : 40\n Duration : 1h 40mn\n Bit rate mode : Variable\n Bit rate : 337 Kbps\n Maximum bit rate : 385 Kbps\n Channel(s) : 6 channels\n Channel positions : Front: L C R, Side: L R, LFE\n Sampling rate : 48.0 KHz\n Compression mode : Lossy\n Stream size : 242 MiB (23%)\n Language : English\n \nSource : LEVERAGE - Thanks!","torrent":{"xt":"urn:btih:c55582f253a10de8626fb7437accc33e531c86ae","amp;dn":"You+May+Not+Kiss+The+Bride+2011+BRRip+x264+AAC-UNiQUE","amp;tr":["udp%3A%2F%2Ftracker.openbittorrent.com%3A80","udp%3A%2F%2Fopen.demonii.com%3A1337","udp%3A%2F%2Ftracker.coppersurfer.tk%3A6969","udp%3A%2F%2Fexodus.desync.com%3A6969"],"infoHash":"c55582f253a10de8626fb7437accc33e531c86ae","infoHashBuffer":{"type":"Buffer","data":[197,85,130,242,83,161,13,232,98,111,183,67,122,204,195,62,83,28,134,174]},"announce":[],"urlList":[]}}